<?xml version="1.0" encoding="UTF-8" standalone="no"?>
<!-- Generator: Adobe Illustrator 16.0.0, SVG Export Plug-In . SVG Version: 6.00 Build 0)  -->

<svg
   xmlns:dc="http://purl.org/dc/elements/1.1/"
   xmlns:cc="http://creativecommons.org/ns#"
   xmlns:rdf="http://www.w3.org/1999/02/22-rdf-syntax-ns#"
   xmlns:svg="http://www.w3.org/2000/svg"
   xmlns="http://www.w3.org/2000/svg"
   xmlns:sodipodi="http://sodipodi.sourceforge.net/DTD/sodipodi-0.dtd"
   xmlns:inkscape="http://www.inkscape.org/namespaces/inkscape"
   version="1.1"
   id="Layer_1"
   x="0px"
   y="0px"
   width="450"
   height="450"
   viewBox="0 0 450 450"
   enable-background="new 0 0 32 32"
   xml:space="preserve"
   inkscape:version="0.91 r13725"
   sodipodi:docname="AndTest.svg"><metadata
     id="metadata3342"><rdf:RDF><cc:Work
         rdf:about=""><dc:format>image/svg+xml</dc:format><dc:type
           rdf:resource="http://purl.org/dc/dcmitype/StillImage" /><dc:title /></cc:Work></rdf:RDF></metadata><defs
     id="defs3340" /><sodipodi:namedview
     pagecolor="#ffffff"
     bordercolor="#666666"
     borderopacity="1"
     objecttolerance="10"
     gridtolerance="10"
     guidetolerance="10"
     inkscape:pageopacity="0"
     inkscape:pageshadow="2"
     inkscape:window-width="1858"
     inkscape:window-height="1177"
     id="namedview3338"
     showgrid="false"
     inkscape:zoom="0.67672329"
     inkscape:cx="-300.63845"
     inkscape:cy="111.90557"
     inkscape:window-x="-8"
     inkscape:window-y="-8"
     inkscape:window-maximized="1"
     inkscape:current-layer="Layer_1" /><rect
     style="fill:#ffffff;fill-opacity:1;stroke:#357ec7;stroke-width:28.13626671;stroke-linecap:butt;stroke-miterlimit:4;stroke-dasharray:none;stroke-opacity:1"
     id="rect4417"
     width="423.42496"
     height="424.0939"
     x="13.287521"
     y="12.953049"
     rx="79.601212"
     ry="79.601212" /><g
     id="g3371"
     transform="matrix(1.0716517,0,0,1.0716517,-53.711691,-16.537701)"
     style="fill:#357ec7;fill-opacity:1"><path
       inkscape:connector-curvature="0"
       d="m 373.06575,143.86125 -64.077,-64.078 c -1.854,-1.854 -4.368,-2.895 -6.989,-2.895 l -147.924,0 c -5.458,0 -9.884,4.426 -9.884,9.883 l 0,277.233 c 0,5.458 4.426,9.884 9.884,9.884 l 212.002,0 c 5.458,0 9.884,-4.426 9.884,-9.884 l 0,-213.155 c 0,-2.621 -1.042,-5.135 -2.896,-6.988 z m -61.182,-33.228 30.333,30.333 -30.333,0 0,-30.333 z m -147.924,243.487 0,-257.465 128.156,0 0,54.194 c 0,5.459 4.426,9.884 9.884,9.884 l 54.194,0 0,193.388 -192.234,0 z"
       id="path5"
       style="fill:#357ec7;fill-opacity:1" /><path
       inkscape:connector-curvature="0"
       d="m 289.47007,265.11718 c -1.272,-3.18042 -4.35243,-5.26511 -7.77776,-5.26511 -3.42448,0 -6.50491,2.08469 -7.77691,5.26511 l -27.63908,69.09898 c -1.71775,4.2948 0.37117,9.1684 4.66597,10.88784 4.29311,1.71606 9.1684,-0.37202 10.88785,-4.66682 l 3.42109,-8.55485 32.88301,0 3.42109,8.55485 c 1.31099,3.27449 4.45582,5.26765 7.7803,5.26765 1.03557,0 2.08808,-0.19406 3.10755,-0.60083 4.2948,-1.7186 6.38457,-6.59219 4.66682,-10.88784 l -27.63993,-69.09898 z m -17.51733,50.01306 9.74042,-24.35104 9.74126,24.35104 -19.48168,0 z"
       id="path7"
       style="fill:#357ec7;fill-opacity:1" /><path
       inkscape:connector-curvature="0"
       d="m 342.03645,262.36471 -6.73881,0 0,-6.78117 c 0,-4.6253 -3.75074,-8.3752 -8.37604,-8.3752 -4.6253,0 -8.3752,3.7499 -8.3752,8.3752 l 0,6.78117 -6.7388,0 c -4.62615,0 -8.37604,3.7499 -8.37604,8.3752 0,4.62614 3.74989,8.37604 8.37604,8.37604 l 6.7388,0 0,6.78118 c 0,4.6253 3.7499,8.37604 8.3752,8.37604 4.6253,0 8.37604,-3.75074 8.37604,-8.37604 l 0,-6.78118 6.73881,0 c 4.62529,0 8.37604,-3.7499 8.37604,-8.37604 -8.5e-4,-4.62615 -3.75075,-8.3752 -8.37604,-8.3752 z"
       id="path9"
       style="fill:#357ec7;fill-opacity:1" /><path
       inkscape:connector-curvature="0"
       id="path7-4"
       d="m 324.37768,152.66006 -125.31579,0 c -4.61363,0 -8.35412,3.73981 -8.35412,8.35479 -6.8e-4,4.61363 3.74049,8.35479 8.35412,8.35479 l 125.31579,0 c 4.61363,0 8.35479,-3.74048 8.35479,-8.35479 -10e-4,-4.61498 -3.74116,-8.35479 -8.35479,-8.35479 z"
       style="fill:#357ec7;fill-opacity:1" /><path
       inkscape:connector-curvature="0"
       id="path9-5"
       d="m 324.37768,185.35579 -125.31579,0 c -4.61363,0 -8.35412,3.73981 -8.35412,8.35479 -6.8e-4,4.61363 3.74049,8.35479 8.35412,8.35479 l 125.31579,0 c 4.61363,0 8.35479,-3.73981 8.35479,-8.35479 -10e-4,-4.61431 -3.74116,-8.35479 -8.35479,-8.35479 z"
       style="fill:#357ec7;fill-opacity:1" /><path
       inkscape:connector-curvature="0"
       id="path11"
       d="m 324.37768,218.05152 -125.31579,0 c -4.61363,0 -8.35412,3.73981 -8.35412,8.35411 -6.8e-4,4.61431 3.74049,8.35547 8.35412,8.35547 l 125.31579,0 c 4.61363,0 8.35479,-3.74049 8.35479,-8.35479 -10e-4,-4.61498 -3.74116,-8.35479 -8.35479,-8.35479 z"
       style="fill:#357ec7;fill-opacity:1" /><path
       inkscape:connector-curvature="0"
       id="path13"
       d="m 197.32347,136.67324 99.2386,0 c 3.65357,0 6.61622,-3.73981 6.61622,-8.35412 -7.9e-4,-4.6143 -2.96265,-8.35479 -6.61622,-8.35479 l -99.2386,0 c -3.65358,0 -6.6157,3.74049 -6.6157,8.35411 -5.4e-4,4.61431 2.96212,8.3548 6.6157,8.3548 z"
       style="fill:#357ec7;fill-opacity:1" /></g></svg>