<?xml version="1.0" encoding="UTF-8" standalone="no"?>
<svg
   xmlns:dc="http://purl.org/dc/elements/1.1/"
   xmlns:cc="http://creativecommons.org/ns#"
   xmlns:rdf="http://www.w3.org/1999/02/22-rdf-syntax-ns#"
   xmlns:svg="http://www.w3.org/2000/svg"
   xmlns="http://www.w3.org/2000/svg"
   xmlns:sodipodi="http://sodipodi.sourceforge.net/DTD/sodipodi-0.dtd"
   xmlns:inkscape="http://www.inkscape.org/namespaces/inkscape"
   viewBox="0 -256 1792 1792"
   id="svg3013"
   version="1.1"
   inkscape:version="0.48.3.1 r9886"
   width="100%"
   height="100%"
   sodipodi:docname="light_bulb_font_awesome.svg">
  <metadata
     id="metadata3023">
    <rdf:RDF>
      <cc:Work
         rdf:about="">
        <dc:format>image/svg+xml</dc:format>
        <dc:type
           rdf:resource="http://purl.org/dc/dcmitype/StillImage" />
      </cc:Work>
    </rdf:RDF>
  </metadata>
  <defs
     id="defs3021" />
  <sodipodi:namedview
     pagecolor="#ffffff"
     bordercolor="#666666"
     borderopacity="1"
     objecttolerance="10"
     gridtolerance="10"
     guidetolerance="10"
     inkscape:pageopacity="0"
     inkscape:pageshadow="2"
     inkscape:window-width="640"
     inkscape:window-height="480"
     id="namedview3019"
     showgrid="false"
     inkscape:zoom="0.13169643"
     inkscape:cx="896"
     inkscape:cy="896"
     inkscape:window-x="0"
     inkscape:window-y="25"
     inkscape:window-maximized="0"
     inkscape:current-layer="svg3013" />
  <g
     transform="matrix(1,0,0,-1,379.66102,1293.0169)"
     id="g3015">
    <path
       d="m 736,960 q 0,-13 -9.5,-22.5 Q 717,928 704,928 q -13,0 -22.5,9.5 -9.5,9.5 -9.5,22.5 0,46 -54,71 -54,25 -106,25 -13,0 -22.5,9.5 -9.5,9.5 -9.5,22.5 0,13 9.5,22.5 9.5,9.5 22.5,9.5 50,0 99.5,-16 49.5,-16 87,-54 37.5,-38 37.5,-90 z m 160,0 q 0,72 -34.5,134 -34.5,62 -90,101.5 -55.5,39.5 -123,62 Q 581,1280 512,1280 443,1280 375.5,1257.5 308,1235 252.5,1195.5 197,1156 162.5,1094 128,1032 128,960 128,859 196,780 206,769 226.5,747 247,725 257,714 385,561 398,416 h 228 q 13,145 141,298 10,11 30.5,33 20.5,22 30.5,33 68,79 68,180 z m 128,0 Q 1024,805 921,692 876,643 846.5,605 817,567 787,509.5 757,452 753,402 q 47,-28 47,-82 0,-37 -25,-64 25,-27 25,-64 0,-52 -45,-81 13,-23 13,-47 0,-46 -31.5,-71 -31.5,-25 -77.5,-25 -20,-44 -60,-70 -40,-26 -87,-26 -47,0 -87,26 -40,26 -60,70 -46,0 -77.5,25 -31.5,25 -31.5,71 0,24 13,47 -45,29 -45,81 0,37 25,64 -25,27 -25,64 0,54 47,82 -4,50 -34,107.5 Q 207,567 177.5,605 148,643 103,692 0,805 0,960 q 0,99 44.5,184.5 44.5,85.5 117,142 72.5,56.5 164,89 91.5,32.5 186.5,32.5 95,0 186.5,-32.5 91.5,-32.5 164,-89 72.5,-56.5 117,-142 Q 1024,1059 1024,960 z"
       id="path3017"
       inkscape:connector-curvature="0"
       style="fill:currentColor" />
  </g>
</svg>
